<svg width="16" height="16" viewBox="0 0 16 16" fill="none" xmlns="http://www.w3.org/2000/svg">
<path d="M16 5.18181C16 2.80909 14.3535 0.800004 12.3487 0.800004H9.85957C8.85229 0.299994 7.64164 0 6.28572 0H5.23972C4.30994 0 3.49637 0.0545514 2.95399 0.181825C1.86926 0.427269 1.19128 1.14546 1.19128 2.03636C1.19128 2.2 1.21066 2.36363 1.25908 2.5091C0.755441 2.89092 0.474577 3.42727 0.474577 4.01818C0.474577 4.29091 0.523003 4.56363 0.619855 4.80001C0.280871 5.15455 0.0968521 5.63636 0.0968521 6.14545C0.0968521 6.46364 0.174333 6.8091 0.309927 7.07273C0.116223 7.37272 0 7.76363 0 8.18181C0 9.28181 0.910415 10.1455 2.08233 10.1455H4.93947C5.03633 10.1455 5.10412 10.1818 5.10412 10.2818C5.10412 11.0091 3.83536 12.7909 3.83536 14.2455C3.83536 15.2636 4.59081 16 5.64648 16C6.42131 16 6.93463 15.6273 7.43825 14.7273C8.33899 13.1091 9.5109 11.5 11.2155 9.59091H12.6295C14.4988 9.59091 16 7.6 16 5.18181ZM11.477 5.23636C11.477 6.74546 11.1186 7.69999 10.1114 8.97273C8.98789 10.3818 7.41889 12.0727 6.30508 14.1727C6.02421 14.6909 5.84987 14.8091 5.58838 14.8091C5.3172 14.8091 5.1138 14.6091 5.1138 14.2455C5.1138 13.1091 6.38257 11.3909 6.38257 10.2818C6.38257 9.44545 5.65618 8.94546 4.74576 8.94546H2.08233C1.61743 8.94546 1.27844 8.62727 1.27844 8.18181C1.27844 7.84546 1.39468 7.64546 1.7046 7.34545C1.82082 7.24545 1.83052 7.11818 1.74334 6.98182C1.48183 6.6091 1.3753 6.41819 1.3753 6.14545C1.3753 5.82727 1.53995 5.56363 1.88862 5.29091C2.07265 5.16364 2.14044 4.98181 2.04359 4.77273C1.8402 4.40908 1.75302 4.27272 1.75302 4.01818C1.75302 3.65454 2.00485 3.38182 2.56659 3.10909C2.73124 3.01817 2.7603 2.89092 2.6925 2.75454C2.49879 2.27272 2.47941 2.21819 2.47941 2.03636C2.47941 1.72728 2.72154 1.47274 3.25424 1.34546C3.69008 1.23636 4.39709 1.19091 5.23972 1.19091H6.17918C9.36561 1.2 11.477 2.89092 11.477 5.23636ZM14.7216 5.18181C14.7216 6.93637 13.724 8.39091 12.6295 8.39091C12.4358 8.39091 12.2325 8.39091 12.0291 8.39091C12.5327 7.45455 12.7555 6.43636 12.7555 5.25455C12.7555 3.99092 12.3003 2.88181 11.477 2.00909C11.7676 2.00909 12.0581 2.00909 12.3487 2.00909C13.6078 2.00909 14.7216 3.47274 14.7216 5.18181Z" fill="#8F8F8F"/>
</svg>
