<svg width="16" height="16" viewBox="0 0 16 16" fill="none" xmlns="http://www.w3.org/2000/svg">
<path d="M0 10.8273C0 13.1909 1.64649 15.2 3.65132 15.2H6.14044C7.1477 15.7091 8.35835 16 9.71428 16H10.7603C11.6901 16 12.5036 15.9455 13.046 15.8182C14.1308 15.5818 14.8087 14.8636 14.8087 13.9636C14.8087 13.8 14.7893 13.6455 14.7409 13.5C15.2446 13.1182 15.5254 12.5727 15.5254 11.9818C15.5254 11.7182 15.477 11.4455 15.3801 11.2091C15.7191 10.8545 15.9031 10.3636 15.9031 9.86364C15.9031 9.54545 15.8257 9.19999 15.6901 8.92727C15.8838 8.63636 16 8.23635 16 7.81819C16 6.72727 15.0896 5.86363 13.9177 5.86363H11.0605C10.9637 5.86363 10.8959 5.81818 10.8959 5.72727C10.8959 4.99999 12.1647 3.20909 12.1647 1.76363C12.1647 0.736348 11.4092 0 10.3535 0C9.5787 0 9.06538 0.372717 8.56174 1.28181C7.66102 2.8909 6.48911 4.5 4.7845 6.41817H3.37045C1.50121 6.41817 0 8.40909 0 10.8273ZM4.52301 10.7727C4.52301 9.26363 4.88135 8.29999 5.88861 7.03635C7.01211 5.62727 8.58112 3.93635 9.69492 1.82726C9.97578 1.30908 10.1501 1.2 10.4116 1.2C10.6828 1.2 10.8862 1.39999 10.8862 1.76363C10.8862 2.8909 9.61744 4.60908 9.61744 5.72727C9.61744 6.55453 10.3438 7.05454 11.2542 7.05454H13.9177C14.3826 7.05454 14.7216 7.38181 14.7216 7.81819C14.7216 8.15454 14.6053 8.35454 14.2954 8.65453C14.1792 8.76364 14.1695 8.89091 14.2567 9.01818C14.5182 9.3909 14.6247 9.5909 14.6247 9.86364C14.6247 10.1818 14.46 10.4455 14.1114 10.7091C13.9274 10.8454 13.8596 11.0273 13.9564 11.2364C14.1598 11.6 14.247 11.7364 14.247 11.9818C14.247 12.3455 13.9952 12.6182 13.4334 12.9C13.2688 12.9909 13.2397 13.1182 13.3075 13.2545C13.5012 13.7364 13.5206 13.7909 13.5206 13.9636C13.5206 14.2818 13.2785 14.5273 12.7458 14.6545C12.3099 14.7636 11.6029 14.8091 10.7603 14.8091H9.82083C6.63438 14.8091 4.52301 13.1182 4.52301 10.7727ZM1.27844 10.8273C1.27844 9.07272 2.27602 7.60909 3.37045 7.60909C3.56417 7.60909 3.76756 7.60909 3.97095 7.60909C3.46731 8.55454 3.24456 9.56364 3.24456 10.7455C3.24456 12.0091 3.69976 13.1273 4.52301 14C4.23244 14 3.94189 14 3.65132 14C2.39225 14 1.27844 12.5364 1.27844 10.8273Z" fill="#8F8F8F"/>
</svg>
