<svg width="24" height="25" viewBox="0 0 24 25" fill="none" xmlns="http://www.w3.org/2000/svg">
  <path d="M8.58724 8.736L11.1852 3.504C11.2609 3.35259 11.3772 3.22523 11.5211 3.13622C11.6651 3.04721 11.831 3.00006 12.0002 3.00006C12.1695 3.00006 12.3354 3.04721 12.4793 3.13622C12.6233 3.22523 12.7396 3.35259 12.8152 3.504L15.4132 8.736L21.2212 9.58C21.3888 9.60323 21.5464 9.67309 21.6761 9.78161C21.8058 9.89013 21.9024 10.0329 21.9549 10.1937C22.0073 10.3545 22.0135 10.5268 21.9727 10.691C21.932 10.8551 21.8458 11.0045 21.7242 11.122L17.5222 15.192L18.5142 20.942C18.6412 21.68 17.8612 22.242 17.1942 21.894L12.0002 19.178L6.80524 21.894C6.13924 22.243 5.35924 21.68 5.48624 20.941L6.47824 15.191L2.27624 11.121C2.15522 11.0034 2.06964 10.8542 2.0292 10.6903C1.98877 10.5265 1.99511 10.3546 2.04751 10.1941C2.0999 10.0337 2.19625 9.89122 2.32561 9.78284C2.45496 9.67445 2.61212 9.60452 2.77924 9.581L8.58724 8.736Z" fill="#FED467" />
</svg>